<svg width="7696" height="5048" viewBox="0 0 7696 5048" fill="none" xmlns="http://www.w3.org/2000/svg">
<path d="M3741.19 2245.43L3027.61 1531.85L3741.19 818.274L3106.68 183.748L2393.08 897.325V2166.35L3106.68 2879.95L3741.19 2245.43Z" fill="#40B4D2"/>
<path d="M4668.39 1377.98L5302.92 743.454L4559.44 0H3290.41L4668.39 1377.98Z" fill="#16457B"/>
<path d="M3290.41 3063.7H4559.44L5302.92 2320.23L4668.39 1685.72L3290.41 3063.7Z" fill="#16457B"/>
<path d="M0 4356.92C0 3958.16 298.693 3665.91 703.94 3665.91C1065.61 3665.91 1307.79 3883.88 1361.06 4161.56H1063.98C1033.31 4035.66 899.3 3935.52 710.404 3935.52C471.44 3935.52 293.827 4111.54 293.827 4356.92C293.827 4600.75 471.44 4778.36 710.404 4778.36C899.3 4778.36 1054.3 4654.04 1076.89 4534.53H1373.98C1333.6 4799.33 1068.83 5047.95 703.94 5047.95C298.693 5047.95 0 4755.72 0 4356.92Z" fill="#16457B"/>
<path d="M2362 4542.57C2517 4469.96 2602.56 4331.11 2602.56 4150.25C2602.56 3877.42 2407.22 3699.81 2073.01 3699.81H1543.44V3959.76H2060.08C2215.08 3959.76 2308.73 4025.93 2308.73 4150.25C2308.73 4274.6 2215.08 4340.77 2060.08 4340.77H1543.44V5015.66H1837.27V4600.73H2071.39L2326.48 5015.66H2667.15L2362 4542.57Z" fill="#16457B"/>
<path d="M7390.84 4542.57C7545.84 4469.96 7631.4 4331.11 7631.4 4150.25C7631.4 3877.42 7436.07 3699.81 7101.83 3699.81H6572.29V3959.76H7088.93C7243.93 3959.76 7337.55 4025.93 7337.55 4150.25C7337.55 4274.6 7243.93 4340.77 7088.93 4340.77H6572.29V5015.66H6866.14V4600.73H7100.23L7355.32 5015.66H7696L7390.84 4542.57Z" fill="#16457B"/>
<path d="M2802.68 4229.4V5015.68H3795.63V4760.59H3096.51V4484.51H3795.63V4229.4H3096.51H2802.68Z" fill="#16457B"/>
<path d="M2803.11 3755.13C2803.11 3725.92 2826.79 3702.24 2856 3702.24H3743.13C3772.34 3702.24 3796.02 3725.92 3796.02 3755.13V3904.45C3796.02 3933.66 3772.34 3957.34 3743.13 3957.34H2856C2826.79 3957.34 2803.11 3933.66 2803.11 3904.45V3755.13Z" fill="#16457B"/>
<path d="M5394.68 3755.13C5394.68 3725.92 5418.36 3702.24 5447.56 3702.24H6334.69C6363.9 3702.24 6387.58 3725.92 6387.58 3755.13V3904.45C6387.58 3933.66 6363.9 3957.34 6334.69 3957.34H5447.56C5418.36 3957.34 5394.68 3933.66 5394.68 3904.45V3755.13Z" fill="#16457B"/>
<path d="M5382.42 4229.4V5015.68H6375.37V4760.59H5676.27V4484.51H6375.37V4229.4H5676.27H5382.42Z" fill="#16457B"/>
<path d="M4502.75 3699.83H3992.55V3959.78H4507.59C4759.46 3959.78 4914.46 4105.07 4914.46 4358.57C4914.46 4612.03 4759.46 4755.73 4507.59 4755.73H4286.43V4234.24H3992.55V5015.68H4502.75C4938.68 5015.68 5208.29 4747.64 5208.29 4358.57C5208.29 3969.44 4938.68 3699.83 4502.75 3699.83Z" fill="#16457B"/>
</svg>
